<?xml version="1.0" encoding="UTF-8"?>
<svg width="312px" height="234px" viewBox="0 0 312 234" version="1.1" xmlns="http://www.w3.org/2000/svg" xmlns:xlink="http://www.w3.org/1999/xlink">
    <!-- Generator: Sketch 48.2 (47327) - http://www.bohemiancoding.com/sketch -->
    <title>Cloud Armor_1</title>
    <desc>Created with Sketch.</desc>
    <defs>
        <path d="M94.9906318,0.498905756 C79.3645004,0.959844393 63.6214916,5.18534001 49.136078,13.5414843 C2.43006886,40.4813731 -13.5739212,100.152477 13.3926401,146.811833 C34.6686495,183.63003 76.3376423,201.350887 115.915627,193.955944 L115.915627,2.13393977 C110.922824,1.19855331 105.851789,0.64925865 100.750493,0.498905756 L94.9906318,0.498905756 L94.9906318,0.498905756 Z" id="path-1"></path>
        <path d="M1.02415333,22.4994151 C-1.07054224,42.2920983 2.85799122,62.9035127 13.5811649,81.4574681 C34.8571743,118.275664 28.1084951,61.1692807 67.68648,53.7743381 L72.4628392,0.333601621 C67.4700357,-0.601784839 49.6331759,3.54897436 44.5318806,3.39862146 L40.9396707,23.3957614 C40.9396707,23.3957614 22.3594448,16.9523718 1.02415333,22.4994151 Z" id="path-3"></path>
        <path d="M0.470889844,0.16610501 C31.2856317,2.73151289 60.3780926,19.8430664 77.0089312,48.6240528 C87.3679423,66.5492182 91.3864766,86.3934662 89.7596053,105.564376 L0.470889844,105.564376 L0.470889844,0.16610501 L0.470889844,0.16610501 Z" id="path-5"></path>
    </defs>
    <g id="Network-Security-Website" stroke="none" stroke-width="1" fill="none" fill-rule="evenodd" transform="translate(-735.000000, -72.000000)">
        <g id="Cloud-Armor_1" transform="translate(735.000000, 27.000000)">
            <g id="Group-27" transform="translate(184.299842, 162.258049) rotate(62.000000) translate(-184.299842, -162.258049) translate(63.329917, 45.800218)" stroke-linecap="round" stroke-linejoin="round" stroke-width="2.6">
                <g id="Group-18" transform="translate(7.560620, 0.000000)">
                    <path d="M228.235329,114.604691 C228.235329,51.3102678 176.942922,0 113.670531,0 C55.7030194,0 7.79085459,43.0670482 0.164238882,98.9604156" id="Oval-12" stroke="#9B9B9B" stroke-dasharray="1.3,8.944000148773194"></path>
                    <polyline id="Path-42" stroke="#979797" points="223.928381 114.915104 228.005899 121.691095 232.912085 114.915104"></polyline>
                </g>
                <g id="Group-18" transform="translate(117.636748, 171.236401) rotate(-180.000000) translate(-117.636748, -171.236401) translate(0.569079, 110.079775)">
                    <path d="M228.235329,114.604691 C228.235329,51.3102678 176.942922,0 113.670531,0 C57.3003129,0 10.4389267,40.7263249 0.885823743,94.369843" id="Oval-12" stroke="#9B9B9B" stroke-dasharray="1.3,8.944000148773194"></path>
                    <polyline id="Path-42" stroke="#979797" points="223.928381 114.915104 228.005899 121.691095 232.912085 114.915104"></polyline>
                </g>
            </g>
            <g id="Page-1" transform="translate(180.942669, 49.608434)">
                <g id="Group-7" transform="translate(0.894267, 0.049202)"></g>
            </g>
            <g id="Globe---Gray" transform="translate(86.730721, 63.921687)">
                <g id="Group-17">
                    <path d="M183.035071,49.8421029 C210.001632,96.5048655 194.001052,156.17086 147.293338,183.112452 C100.587329,210.052341 40.8660367,194.064873 13.9011803,147.400407 C-13.0636761,100.741051 2.93860905,41.0716497 49.6446182,14.1317609 C96.3472176,-12.8064246 156.070215,3.18104358 183.035071,49.8421029 Z" id="Fill-1" fill="#66BBFF"></path>
                    <path d="M168.34676,166.519449 C160.493944,169.783032 166.658899,157.60762 160.546797,146.876632 C154.427875,136.149051 153.333323,122.093161 146.803517,116.86734 C140.273712,111.64152 140.081057,113.063801 130.973428,116.163864 C121.864094,119.269037 114.062426,116.879264 112.364335,108.85998 C110.666245,100.842399 110.921982,94.0903933 113.296921,88.0691169 C115.675271,82.0478406 120.559838,73.9246533 126.262762,72.9145778 C131.972505,71.9045023 138.688146,76.6056969 142.798684,75.0471487 C146.902402,73.4886005 152.484277,67.6802405 157.416582,72.3524785 C162.348887,77.0213097 164.616417,80.785672 170.290357,83.3338558 C175.959183,85.8786328 180.908537,88.7828128 179.082578,93.2029577 C177.254915,97.6299159 174.472501,108.26722 176.702524,116.472167 C178.930841,124.672005 184.962813,143.40354 182.947609,148.36364 C180.94775,153.316928 174.598665,163.916759 168.34676,166.519449" id="Fill-8" fill="#4285F4"></path>
                    <path d="M103.640823,58.2783624 C100.026413,56.5648111 106.181138,53.500518 103.552167,49.9167088 C100.914671,46.3311963 98.6471412,42.5804606 100.793623,41.5346152 C102.9384,40.4887697 113.024647,45.7537669 111.374294,50.5384247 C109.720532,55.3196759 105.949271,59.3719012 103.640823,58.2783624" id="Fill-9" fill="#4285F4"></path>
                    <path d="M66.0552293,129.176124 C63.4057992,132.243823 54.3049897,129.584923 56.6696998,125.343628 C59.0292953,121.102333 62.5533442,123.798707 65.9495249,122.596155 C69.3457056,121.388493 68.0397446,126.881736 66.0552293,129.176124" id="Fill-10" fill="#4285F4"></path>
                    <path d="M82.171232,39.0055088 C81.2420561,35.1219133 86.4863592,34.2481043 88.0651058,36.5799649 C89.6438525,38.9084189 83.0219821,42.5705813 82.171232,39.0055088" id="Fill-11" fill="#4285F4"></path>
                    <path d="M97.1693252,53.7096871 C96.736278,50.4563242 97.551225,46.1809624 100.928652,51.4408497 C102.219269,53.4490774 97.5017826,56.1982542 97.1693252,53.7096871" id="Fill-12" fill="#4285F4"></path>
                    <g id="Group-20" transform="translate(0.320527, 0.589766)">
                        <g id="Group-16" transform="translate(0.188525, 0.000000)">
                            <mask id="mask-2" fill="white">
                                <use xlink:href="#path-1"></use>
                            </mask>
                            <g id="Clip-15"></g>
                            <path d="M109.775976,187.543426 C109.648107,182.740031 108.470015,175.800659 107.817034,170.809899 C107.158939,165.825951 108.868963,155.711569 112.827764,151.127905 C116.789975,146.551053 117.579349,139.083649 111.354722,139.020625 C105.124981,138.957602 92.3517955,135.441926 84.8962241,133.767551 C77.4406527,132.08466 74.7588293,132.951656 72.5833642,136.659808 C70.4096039,140.371367 62.3897073,141.177043 60.2858484,138.664629 C58.1751698,136.150512 54.0885006,135.04505 49.9967166,134.82532 C45.9066375,134.602184 42.0194428,132.072737 40.0963043,129.02718 C38.1714609,125.98503 41.6051496,121.219109 47.1341727,119.859851 C52.6631958,118.495482 53.6759124,124.193126 54.4465317,118.514219 C55.2154461,112.833609 54.2248934,105.355984 54.9750538,102.339384 C55.7166896,99.3261913 61.1195494,93.1584284 67.794272,84.1614322 C74.4758142,75.1678426 58.8247405,73.9346307 54.7653498,71.0491874 C50.6991395,68.1603374 47.1444022,68.1211608 44.609201,72.8973019 C42.0637704,77.6717397 44.6688729,83.9178558 42.6673086,87.9820044 C40.6640393,92.0495597 32.5469629,85.3946441 30.0918925,82.1634245 C27.6334123,78.9339083 35.8800619,73.1613183 39.4740121,69.6405323 C43.0696673,66.1197464 36.8859588,62.498464 37.6258897,59.4869741 C38.3658207,56.4737809 42.7764228,60.0746234 46.1180464,64.2017953 C49.4562601,68.3289672 52.5387374,62.8425369 51.8550685,59.6351639 C51.1799241,56.427791 47.0830254,57.1006069 45.6986385,53.3464646 C44.3125467,49.5974322 42.6860626,51.7180798 37.0257614,49.1664894 C31.3569357,46.6217123 41.1891516,42.276514 44.5802176,41.0705554 C47.9781032,39.8680035 51.1100228,46.296376 53.5378147,52.1864959 C55.9673114,58.0766157 61.3122042,58.134529 66.6349332,59.0798779 C71.961072,60.0252268 71.3217308,53.2647046 71.1768134,50.2395881 C71.0267813,47.211065 75.522629,43.7039057 78.2641242,36.6248606 C81.0056195,29.5441121 74.7963373,27.7028109 72.5424463,22.1652807 C70.2919651,16.6277504 81.6091576,21.6321379 79.9758539,9.26424894 C79.4302827,5.11834041 76.1227573,1.22452492 68.7353823,0.498905756 C62.8943607,2.15284051 57.1096011,4.31096134 51.4595294,7.06184149 C9.36359681,27.5409944 -12.7388563,72.5889989 -5.96695382,116.523025 C0.405999725,126.05146 9.4471374,133.612548 15.4995679,133.035119 C25.6540118,132.076143 29.5718949,131.939877 33.605712,137.49444 C37.6378241,143.042191 45.6457863,143.130764 51.3504151,142.125798 C57.0482243,141.11913 61.8322018,143.65539 66.8105389,143.888746 C71.790581,144.120399 70.314129,149.262757 68.8581358,152.621726 C67.397028,155.984102 70.1828509,161.703889 77.4406527,165.694794 C84.6916349,169.682293 84.8706504,170.038289 88.5651904,173.986611 C92.2580254,177.936637 97.6216723,192.568253 97.5722299,197.015651 C97.5432464,199.969228 98.3803572,203.043741 99.7238263,204.815206 C101.155951,204.784546 102.579551,204.721523 104.01679,204.622729 C106.681564,200.83452 109.873155,191.350371 109.775976,187.543426" id="Fill-14" fill="#4285F4" mask="url(#mask-2)"></path>
                        </g>
                        <g id="Group-16" transform="translate(0.000000, 65.354365)">
                            <mask id="mask-4" fill="white">
                                <use xlink:href="#path-3"></use>
                            </mask>
                            <g id="Clip-15"></g>
                        </g>
                        <g id="Group-19" transform="translate(105.704419, 0.627774)">
                            <mask id="mask-6" fill="white">
                                <use xlink:href="#path-5"></use>
                            </mask>
                            <g id="Clip-18"></g>
                            <path d="M5.22506001,-3.17800124 C2.77169454,-0.0506848607 5.46033759,5.0473859 5.46033759,5.0473859 C8.41153678,12.0157145 5.97010568,16.6283358 3.61051025,20.8747409 C1.25261973,25.1194427 0.36436163,32.7282238 3.00356229,35.4228941 C5.64446787,38.1192676 7.19934578,43.1168418 11.6525707,42.2719895 C16.1075005,41.4339504 16.8593658,37.524805 14.7810805,32.3466776 C12.7045001,27.1719569 12.0412902,22.1897127 15.4067825,23.6443577 C18.768865,25.100706 24.0165779,34.0414923 22.7327807,37.761568 C21.4455737,41.4901604 16.4109745,46.5882311 12.8562371,46.5473512 C9.29468016,46.5149879 7.92563744,58.2373143 6.83108522,60.5368116 C5.74164774,62.831199 1.08553856,65.9857687 0.533147719,67.5783835 C-0.015833298,69.1727016 3.11608635,75.6044809 7.94098163,73.7035631 C12.7658769,71.7941286 13.8024622,69.5627645 15.9779273,65.8512055 C18.1533925,62.1396464 20.3885295,57.4742219 22.6714039,60.3426319 C24.9576882,63.2110419 27.9088874,65.5701558 27.1843007,67.1798039 C26.3693537,68.9921485 33.4310909,70.1333805 30.739038,65.7013123 C25.6720455,57.366912 28.3947868,57.5593884 33.011683,58.8522169 C37.6234646,60.1484521 39.415325,59.2763464 39.2857518,54.472952 C39.1561786,49.6729642 38.1025443,48.412499 43.2871755,46.3344348 C48.4666921,44.2597772 51.138286,44.2887338 51.2729739,48.1995826 C51.4144815,52.1104314 51.2201217,53.5327131 47.8154165,55.624404 C44.4107112,57.7280182 42.6120312,59.4858562 44.2095318,60.0377355 C45.8036227,60.5845049 53.3018168,58.7125438 54.681089,62.4581694 C56.0620661,66.2054984 53.2046369,67.5971201 57.4532726,69.9528274 C61.6984985,72.3136447 64.1740278,73.7580697 66.4671318,75.7373407 C68.7585308,77.7149084 69.3177413,75.2365613 74.0301125,83.9950911 C78.7441886,92.7553243 79.9427403,97.0392027 86.654971,101.731881 C88.9361405,103.326199 92.3442556,105.230523 95.6875841,105.564376 C96.6031207,88.4867759 93.339923,70.9441663 85.3149117,54.4763587 C69.4132162,21.8558598 38.7163119,1.27450694 5.22506001,-3.17800124" id="Fill-17" fill="#4285F4" mask="url(#mask-6)"></path>
                        </g>
                    </g>
                </g>
            </g>
            <g id="Group-13-Copy-6" transform="translate(210.000000, 143.000000)">
                <g id="shield-copy-3">
                    <path d="M0.24866513,13.7682545 L0.24866513,38.7934207 C0.24866513,46.5659683 0.0905363205,54.2946007 1.46354618,61.9866372 C3.03263577,70.7782741 6.17307393,79.2478667 10.4949602,87.1469931 C19.3438484,103.318955 33.2966827,116.373804 50.7581695,123.92204 C68.2205598,116.373804 82.176105,103.318955 91.025445,87.1469931 C95.3468794,79.2478667 98.5144254,70.7782741 100.083515,61.9866372 C101.456525,54.2946007 101.336799,46.5659683 101.336799,38.7934207 L101.336799,13.7682545 L50.792506,0 L0.24866513,13.7682545 Z" id="Fill-1" fill="#FFFFFF"></path>
                    <path d="M7.90663721,19.5480002 L7.90663721,41.174687 C7.90663721,47.8917034 7.77246731,54.5707685 8.93744538,61.2182074 C10.2687941,68.8159183 12.9334083,76.1353193 16.6004633,82.9617249 C24.1086109,96.9374946 35.9473794,108.219463 50.7631864,114.74263 C65.57976,108.219463 77.4208286,96.9374946 84.9293595,82.9617249 C88.5960312,76.1353193 91.2836459,68.8159183 92.6149947,61.2182074 C93.7799727,54.5707685 93.6783869,47.8917034 93.6783869,41.174687 L93.6783869,19.5480002 L50.7923204,7.64950864 L7.90663721,19.5480002 Z" id="Fill-1" fill="#7ED321"></path>
                    <g id="Group-9" transform="translate(22.240145, 28.146681)">
                        <ellipse id="Oval-38" fill="#417505" cx="28.2229011" cy="28.6418139" rx="27.7540753" ry="27.7203623"></ellipse>
                        <g id="Group-7" transform="translate(20.853097, 13.598442)">
                            <ellipse id="Oval-8" fill="#FFFFFF" cx="7.10145507" cy="7.28502337" rx="7.10145507" ry="7.28502337"></ellipse>
                            <polygon id="Rectangle-2" fill="#FAFAFA" points="4.43840942 9.10627921 9.76450072 9.10627921 12.1176199 30.9613493 2.0852902 30.9613493"></polygon>
                        </g>
                    </g>
                </g>
            </g>
            <g id="Group-33" transform="translate(76.232143, 228.198795) scale(-1, 1) translate(-76.232143, -228.198795) translate(0.138158, 189.162651)">
                <g id="Group-29" transform="translate(5.600935, 0.000000)">
                    <path d="M0.000455061024,5.37173004 L0.000455061024,65.1584756 L0.000455061024,65.8250752 L0.000455061024,67.75481 C0.000455061024,67.75481 -0.149715077,72.6585134 5.04134409,72.6585134 L93.2840079,72.6585134 C98.4742757,72.6585134 94.1783018,67.75481 94.1783018,67.75481 L94.1783018,65.8250752 L94.1783018,65.1584756 L94.1783018,5.37173004 C94.1783018,2.40805329 92.1742526,0.41716078 89.2114096,0.41716078 L5.46652937,0.41716078 C2.50388425,0.41716078 0.000455061024,2.40805329 0.000455061024,5.37173004" id="Fill-63" fill="#414141"></path>
                    <path d="M0.000455061024,64.5438105 L44.3297301,64.5438105 L143.047899,64.5438105 L143.047899,67.4869035 C143.047899,67.4869035 142.785744,72.6585926 137.595081,72.6585926 L49.3526145,72.6585926 C44.1609618,72.6585926 44.715147,67.4869035 44.715147,67.4869035 L44.715147,65.1375751 L0.000455061024,65.1375751 L0.000455061024,64.5438105 Z" id="Fill-64" fill="#9D9D9D"></path>
                    <polyline id="Fill-65" fill="#FFFFFF" points="3.86780107 61.0143553 4.02469819 4.96951394 90.6168755 4.96951394 90.6168755 60.9813024 4.15528092 60.9813024"></polyline>
                    <polygon id="Fill-66" fill="#E0DEDC" points="8.26074256 57.3507489 86.9639424 57.3507489 86.9639424 8.56962712 8.26074256 8.56962712"></polygon>
                    <polygon id="Fill-67" fill="#4285F4" points="8.26074256 11.0743239 86.9639424 11.0743239 86.9639424 8.56962712 8.26074256 8.56962712"></polygon>
                    <polygon id="Fill-68" fill="#FFFFFF" points="11.2059766 54.4828662 28.4363677 54.4828662 28.4363677 13.9190498 11.2059766 13.9190498"></polygon>
                    <polygon id="Fill-69" fill="#FFFFFF" points="30.9589886 33.890914 83.9987252 33.890914 83.9987252 13.9188519 30.9589886 13.9188519"></polygon>
                    <polygon id="Fill-70" fill="#FFFFFF" points="30.9589886 54.4258648 46.8596122 54.4258648 46.8596122 36.1559278 30.9589886 36.1559278"></polygon>
                    <polygon id="Fill-71" fill="#FFFFFF" points="49.4920413 54.4258648 65.3926649 54.4258648 65.3926649 36.1559278 49.4920413 36.1559278"></polygon>
                    <polygon id="Fill-72" fill="#FFFFFF" points="68.234422 54.4258648 84.1350456 54.4258648 84.1350456 36.1559278 68.234422 36.1559278"></polygon>
                    <polygon id="Fill-73" fill="#DFDFDF" points="32.8399734 41.3580968 37.8292229 41.3580968 37.8292229 40.3494888 32.8399734 40.3494888"></polygon>
                    <polygon id="Fill-74" fill="#66BBFF" points="51.3726304 43.6830809 63.5809284 43.6830809 63.5809284 41.3715555 51.3726304 41.3715555"></polygon>
                    <polygon id="Fill-75" fill="#DFDFDF" points="70.2163117 49.8993998 72.5270325 49.8993998 72.5270325 41.2636883 70.2163117 41.2636883"></polygon>
                    <polygon id="Fill-76" fill="#BCBCBC" points="32.8399734 39.4845718 45.1123757 39.4845718 45.1123757 38.4759637 32.8399734 38.4759637"></polygon>
                    <polygon id="Fill-77" fill="#BCBCBC" points="51.3393912 39.4845718 63.6117934 39.4845718 63.6117934 38.4759637 51.3393912 38.4759637"></polygon>
                    <polygon id="Fill-78" fill="#BCBCBC" points="70.0877075 39.4845718 82.3601098 39.4845718 82.3601098 38.4759637 70.0877075 38.4759637"></polygon>
                    <polygon id="Fill-79" fill="#BCBCBC" points="13.1002176 17.1748587 22.7585911 17.1748587 22.7585911 16.1662507 13.1002176 16.1662507"></polygon>
                    <polygon id="Fill-80" fill="#66BBFF" points="42.7840461 41.3545343 45.1792499 41.3545343 45.1792499 40.3459262 42.7840461 40.3459262"></polygon>
                    <polygon id="Fill-81" fill="#4285F4" points="42.7840461 43.2308302 45.1792499 43.2308302 45.1792499 42.2222222 42.7840461 42.2222222"></polygon>
                    <polygon id="Fill-82" fill="#66BBFF" points="42.7840461 45.1071262 45.1792499 45.1071262 45.1792499 44.0985181 42.7840461 44.0985181"></polygon>
                    <polygon id="Fill-83" fill="#66BBFF" points="42.7840461 46.9832242 45.1792499 46.9832242 45.1792499 45.9746162 42.7840461 45.9746162"></polygon>
                    <polygon id="Fill-84" fill="#DFDFDF" points="32.8399734 43.2318198 40.8725919 43.2318198 40.8725919 42.2232118 32.8399734 42.2232118"></polygon>
                    <polygon id="Fill-85" fill="#DFDFDF" points="51.4381196 45.6393371 59.4707381 45.6393371 59.4707381 44.6307291 51.4381196 44.6307291"></polygon>
                    <polygon id="Fill-86" fill="#DFDFDF" points="13.1951869 33.3262439 24.3594166 33.3262439 24.3594166 32.3176358 13.1951869 32.3176358"></polygon>
                    <polygon id="Fill-87" fill="#DFDFDF" points="32.8399734 45.1053449 36.6753465 45.1053449 36.6753465 44.0967368 32.8399734 44.0967368"></polygon>
                    <polygon id="Fill-88" fill="#DFDFDF" points="32.8399734 46.9788699 41.7101021 46.9788699 41.7101021 45.9702619 32.8399734 45.9702619"></polygon>
                    <polygon id="Fill-89" fill="#4285F4" points="42.7840461 48.8595201 45.1792499 48.8595201 45.1792499 47.8509121 42.7840461 47.8509121"></polygon>
                    <polygon id="Fill-90" fill="#DFDFDF" points="32.8399734 48.852395 39.4660577 48.852395 39.4660577 47.8437869 32.8399734 47.8437869"></polygon>
                    <polygon id="Fill-91" fill="#66BBFF" points="42.7840461 50.7358161 45.1792499 50.7358161 45.1792499 49.7272081 42.7840461 49.7272081"></polygon>
                    <polygon id="Fill-92" fill="#DFDFDF" points="32.8399734 50.7261179 40.5162594 50.7261179 40.5162594 49.7175099 32.8399734 49.7175099"></polygon>
                    <polygon id="Fill-93" fill="#4285F4" points="42.7840461 52.6121121 45.1792499 52.6121121 45.1792499 51.603504 42.7840461 51.603504"></polygon>
                    <polygon id="Fill-94" fill="#DFDFDF" points="32.8399734 52.599643 36.9687619 52.599643 36.9687619 51.591035 32.8399734 51.591035"></polygon>
                    <path d="M24.580972,23.9057142 C24.580972,26.5566749 22.4326882,28.7059047 19.7824524,28.7059047 C17.1324144,28.7059047 14.9841307,26.5566749 14.9841307,23.9057142 C14.9841307,21.2547534 17.1324144,19.1055237 19.7824524,19.1055237 C22.4326882,19.1055237 24.580972,21.2547534 24.580972,23.9057142" id="Fill-95" fill="#4285F4"></path>
                    <polygon id="Fill-96" fill="#BCBCBC" points="13.1002176 36.5416768 22.7585911 36.5416768 22.7585911 35.5330688 13.1002176 35.5330688"></polygon>
                    <polygon id="Fill-97" fill="#DFDFDF" points="13.1951869 52.693062 24.3594166 52.693062 24.3594166 51.6844539 13.1951869 51.6844539"></polygon>
                    <path d="M24.580972,43.2725521 C24.580972,45.9235128 22.4326882,48.0727425 19.7824524,48.0727425 C17.1324144,48.0727425 14.9841307,45.9235128 14.9841307,43.2725521 C14.9841307,40.6215913 17.1324144,38.4723616 19.7824524,38.4723616 C22.4326882,38.4723616 24.580972,40.6215913 24.580972,43.2725521" id="Fill-98" fill="#4285F4"></path>
                    <path d="M24.580972,23.9057142 C24.580972,26.5566749 22.4326882,28.7059047 19.7824524,28.7059047 C17.1324144,28.7059047 14.9841307,26.5566749 14.9841307,23.9057142 C14.9841307,21.2547534 17.1324144,19.1055237 19.7824524,19.1055237 C22.4326882,19.1055237 24.580972,21.2547534 24.580972,23.9057142" id="Fill-99" fill="#4285F4"></path>
                    <path d="M19.7825316,19.1055831 C19.7803552,19.1055831 19.7783766,19.105781 19.7762003,19.105781 L19.7762003,24.1557484 L22.8476643,27.5985932 C23.9065715,26.7180404 24.5810511,25.3907787 24.5810511,23.9057736 C24.5810511,21.2546149 22.4325695,19.1055831 19.7825316,19.1055831" id="Fill-100" fill="#66BBFF"></path>
                    <path d="M21.7192515,38.8808122 C21.1266829,38.618962 20.4719886,38.4725001 19.7824722,38.4725001 L19.7824722,43.2724927 L21.7192515,38.8808122 Z" id="Fill-101" fill="#66BBFF"></path>
                    <path d="M33.1535303,29.3496048 C33.1535303,29.3496048 45.6208174,29.3701886 55.0142662,24.5646543 C67.8325438,18.0067228 82.1196793,19.7797038 82.1196793,19.7797038 L82.1196793,31.6092747 L33.1626315,31.6092747 L33.1535303,29.3496048 Z" id="Fill-102" fill="#4285F4" opacity="0.100000001"></path>
                    <path d="M33.1535303,29.3496048 C33.1535303,29.3496048 45.454819,29.0303574 55.0142662,24.5646543 C69.486196,17.8038533 82.1196793,19.7797038 82.1196793,19.7797038" id="Stroke-103" stroke="#4285F4" stroke-width="1.3"></path>
                    <path d="M33.1626908,31.6091758 L82.1197386,31.6091758 L82.1197386,26.4634143 C82.1197386,26.4634143 59.0617965,26.6615338 55.2001091,24.3832592 C51.3382238,22.1049847 52.1304257,18.9352716 48.5657151,18.9352716 C45.0010045,18.9352716 45.4960317,22.9964232 42.327422,24.9776175 C39.1588123,26.958614 33.1391464,27.124868 33.1391464,27.124868 C33.1391464,27.124868 33.1626908,31.2824074 33.1626908,31.6091758" id="Fill-104" fill="#66BBFF" opacity="0.100000001"></path>
                    <path d="M82.1197386,26.4633352 C82.1197386,26.4633352 59.0617965,26.6614546 55.2001091,24.38318 C51.3382238,22.1049055 52.1304257,18.9351924 48.5657151,18.9351924 C45.0010045,18.9351924 45.4960317,22.996344 42.327422,24.9775384 C39.1588123,26.9585348 33.1391464,27.1247889 33.1391464,27.1247889" id="Stroke-105" stroke="#66BBFF" stroke-width="1.3"></path>
                    <polygon id="Fill-106" fill="#4285F4" points="54.6267124 43.6830809 57.9793251 43.6830809 57.9793251 41.3715555 54.6267124 41.3715555"></polygon>
                    <polygon id="Fill-107" fill="#4285F4" points="61.848333 43.6830809 62.8322541 43.6830809 62.8322541 41.3715555 61.848333 41.3715555"></polygon>
                    <polygon id="Fill-108" fill="#66BBFF" points="51.3726304 49.9003894 63.5809284 49.9003894 63.5809284 47.588864 51.3726304 47.588864"></polygon>
                    <polygon id="Fill-109" fill="#DFDFDF" points="51.4381196 51.8566456 59.4707381 51.8566456 59.4707381 50.8480376 51.4381196 50.8480376"></polygon>
                    <polygon id="Fill-110" fill="#DFDFDF" points="70.1199575 52.3886587 78.152576 52.3886587 78.152576 51.3800506 70.1199575 51.3800506"></polygon>
                    <polygon id="Fill-111" fill="#4285F4" points="51.3783681 49.9003894 54.7309808 49.9003894 54.7309808 47.588864 51.3783681 47.588864"></polygon>
                    <polygon id="Fill-112" fill="#4285F4" points="56.353768 49.9003894 62.8322541 49.9003894 62.8322541 47.588864 56.353768 47.588864"></polygon>
                    <polygon id="Fill-113" fill="#4285F4" points="70.2163117 50.1868162 72.5270325 50.1868162 72.5270325 49.5362138 70.2163117 49.5362138"></polygon>
                    <polygon id="Fill-114" fill="#4285F4" points="70.2163117 48.2788528 72.5270325 48.2788528 72.5270325 47.6282504 70.2163117 47.6282504"></polygon>
                    <polygon id="Fill-115" fill="#4285F4" points="70.2163117 47.6043363 72.5270325 47.6043363 72.5270325 46.9537339 70.2163117 46.9537339"></polygon>
                    <polygon id="Fill-116" fill="#4285F4" points="70.2163117 44.569012 72.5270325 44.569012 72.5270325 43.9184095 70.2163117 43.9184095"></polygon>
                    <polygon id="Fill-117" fill="#4285F4" points="70.2163117 42.6177037 72.5270325 42.6177037 72.5270325 41.9671013 70.2163117 41.9671013"></polygon>
                    <polygon id="Fill-118" fill="#DFDFDF" points="73.5174827 49.8993998 75.8282034 49.8993998 75.8282034 41.2636883 73.5174827 41.2636883"></polygon>
                    <polygon id="Fill-119" fill="#66BBFF" points="73.5174827 49.4180891 75.8282034 49.4180891 75.8282034 48.7674866 73.5174827 48.7674866"></polygon>
                    <polygon id="Fill-120" fill="#66BBFF" points="73.5174827 48.4924101 75.8282034 48.4924101 75.8282034 47.8418077 73.5174827 47.8418077"></polygon>
                    <polygon id="Fill-121" fill="#66BBFF" points="73.5174827 46.7928581 75.8282034 46.7928581 75.8282034 46.1422557 73.5174827 46.1422557"></polygon>
                    <polygon id="Fill-122" fill="#66BBFF" points="73.5174827 44.569012 75.8282034 44.569012 75.8282034 43.9184095 73.5174827 43.9184095"></polygon>
                    <polygon id="Fill-123" fill="#66BBFF" points="73.5174827 43.8774742 75.8282034 43.8774742 75.8282034 43.2268718 73.5174827 43.2268718"></polygon>
                    <polygon id="Fill-124" fill="#DFDFDF" points="76.7925371 49.8993998 79.1032578 49.8993998 79.1032578 41.2636883 76.7925371 41.2636883"></polygon>
                    <polygon id="Fill-125" fill="#4285F4" points="76.7925371 49.0123499 79.1032578 49.0123499 79.1032578 48.3617475 76.7925371 48.3617475"></polygon>
                    <polygon id="Fill-126" fill="#4285F4" points="76.7925371 45.9514937 79.1032578 45.9514937 79.1032578 45.3008913 76.7925371 45.3008913"></polygon>
                    <polygon id="Fill-127" fill="#4285F4" points="76.7925371 43.9958312 79.1032578 43.9958312 79.1032578 43.3452288 76.7925371 43.3452288"></polygon>
                    <polygon id="Fill-128" fill="#4285F4" points="76.7925371 43.330617 79.1032578 43.330617 79.1032578 42.6800146 76.7925371 42.6800146"></polygon>
                    <polygon id="Fill-129" fill="#4285F4" points="76.7925371 41.9344787 79.1032578 41.9344787 79.1032578 41.2838763 76.7925371 41.2838763"></polygon>
                    <polygon id="Fill-130" fill="#DFDFDF" points="80.0721421 49.8993998 82.3828628 49.8993998 82.3828628 41.2636883 80.0721421 41.2636883"></polygon>
                    <polygon id="Fill-131" fill="#66BBFF" points="80.0721421 46.6731156 82.3828628 46.6731156 82.3828628 46.0225132 80.0721421 46.0225132"></polygon>
                    <polygon id="Fill-132" fill="#66BBFF" points="80.0721421 48.2788528 82.3828628 48.2788528 82.3828628 47.6282504 80.0721421 47.6282504"></polygon>
                    <polygon id="Fill-133" fill="#66BBFF" points="80.0721421 47.2199727 82.3828628 47.2199727 82.3828628 46.5693703 80.0721421 46.5693703"></polygon>
                    <polygon id="Fill-134" fill="#66BBFF" points="80.0721421 45.0173042 82.3828628 45.0173042 82.3828628 44.3667018 80.0721421 44.3667018"></polygon>
                    <polygon id="Fill-135" fill="#66BBFF" points="80.0721421 43.8988497 82.3828628 43.8988497 82.3828628 43.2482473 80.0721421 43.2482473"></polygon>
                </g>
                <path d="M151.497285,73.5724246 C151.497285,75.7466745 117.583157,77.50899 75.7486424,77.50899 C33.9132187,77.50899 0,75.7466745 0,73.5724246 C0,71.3981747 33.9132187,69.6358592 75.7486424,69.6358592 C117.583157,69.6358592 151.497285,71.3981747 151.497285,73.5724246 Z" id="Fill-1-Copy" fill="#293841" opacity="0.100000001"></path>
            </g>
            <g id="Group-15" transform="translate(132.000000, 237.000000)">
                <path d="M30.9172582,15.4778392 C30.9172582,24.0216064 23.9971693,30.9502948 15.4586291,30.9502948 C6.92008892,30.9502948 0,24.0216064 0,15.4778392 C0,6.92868836 6.92008892,0 15.4586291,0 C23.9971693,0 30.9172582,6.92868836 30.9172582,15.4778392 Z" id="Stroke-7-Copy" fill="#FBBC05"></path>
                <polygon id="Fill-39-Copy" fill="#FFFFFF" transform="translate(15.556126, 16.442766) rotate(-4.000000) translate(-15.556126, -16.442766) " points="25.4469606 11.9609224 23.5166483 9.66212679 12.5746274 18.9057615 7.99887317 13.1937659 5.6652923 15.0672574 12.1874895 23.2234057 14.5264473 21.3445306 14.4457936 21.2530095"></polygon>
            </g>
        </g>
    </g>
</svg>